<svg xmlns="http://www.w3.org/2000/svg" viewBox="0 0 800 400">
  <defs>
    <linearGradient id="bg1" x1="0%" y1="0%" x2="100%" y2="100%">
      <stop offset="0%" style="stop-color:#001d3d;stop-opacity:1" />
      <stop offset="100%" style="stop-color:#000814;stop-opacity:1" />
    </linearGradient>
  </defs>
  <rect width="800" height="400" fill="url(#bg1)"/>
  
  <!-- Building silhouette -->
  <rect x="200" y="100" width="150" height="250" fill="#003566" opacity="0.8"/>
  <rect x="450" y="80" width="150" height="270" fill="#003566" opacity="0.8"/>
  
  <!-- Windows -->
  <rect x="220" y="120" width="30" height="40" fill="#ffd60a" opacity="0.6"/>
  <rect x="270" y="120" width="30" height="40" fill="#ffd60a" opacity="0.6"/>
  <rect x="220" y="180" width="30" height="40" fill="#ffd60a" opacity="0.6"/>
  <rect x="270" y="180" width="30" height="40" fill="#ffd60a" opacity="0.6"/>
  <rect x="220" y="240" width="30" height="40" fill="#ffd60a" opacity="0.6"/>
  <rect x="270" y="240" width="30" height="40" fill="#ffd60a" opacity="0.6"/>
  
  <rect x="470" y="100" width="30" height="40" fill="#ffd60a" opacity="0.6"/>
  <rect x="520" y="100" width="30" height="40" fill="#ffd60a" opacity="0.6"/>
  <rect x="470" y="160" width="30" height="40" fill="#ffd60a" opacity="0.6"/>
  <rect x="520" y="160" width="30" height="40" fill="#ffd60a" opacity="0.6"/>
  <rect x="470" y="220" width="30" height="40" fill="#ffd60a" opacity="0.6"/>
  <rect x="520" y="220" width="30" height="40" fill="#ffd60a" opacity="0.6"/>
  <rect x="470" y="280" width="30" height="40" fill="#ffd60a" opacity="0.6"/>
  <rect x="520" y="280" width="30" height="40" fill="#ffd60a" opacity="0.6"/>
  
  <!-- Warning sign - WHITE instead of pink -->
  <circle cx="400" cy="200" r="80" fill="#ffffff" opacity="0.9"/>
  <text x="400" y="230" font-size="80" font-weight="bold" text-anchor="middle" fill="#000814">!</text>
  
  <!-- Airbnb-style icon -->
  <circle cx="600" cy="150" r="40" fill="#7dd3fc" opacity="0.3"/>
  <text x="600" y="165" font-size="35" text-anchor="middle" fill="#7dd3fc">🏠</text>
</svg>
